<svg xmlns="http://www.w3.org/2000/svg" viewBox="0 0 800 500">
  <!-- Define colors in one place for easy changing -->
  <defs>
    <!-- Main color palette -->
    <style type="text/css">
      :root {
        --excellent-color:rgb(230, 19, 19);
        --good-color:rgb(218, 221, 21);
        --moderate-color:rgb(13, 241, 127);
        --slower-color:rgb(34, 138, 207);
        --baseline-color:rgb(29, 206, 79);
        --grid-color: #dddddd;
        --axis-color: #000000;
        --error-bar-color: #333333;
        --background-color: #ffffff;
        --text-color: #000000;
      }
    </style>
  </defs>

  <!-- Background -->
  <rect width="800" height="500" fill="var(--background-color)" />

  <!-- Title -->
  <text x="400" y="30" font-family="Arial" font-size="20" font-weight="bold" text-anchor="middle" fill="var(--text-color)">Rust Analyzer Performance Comparison</text>
  <text x="400" y="55" font-family="Arial" font-size="16" text-anchor="middle" fill="var(--text-color)">(Speedup relative to stockthin baseline)</text>

  <!-- Y-axis -->
  <line x1="80" y1="70" x2="80" y2="420" stroke="var(--axis-color)" stroke-width="1" />
  <line x1="78" y1="70" x2="80" y2="70" stroke="var(--axis-color)" stroke-width="1" />
  <line x1="78" y1="120" x2="80" y2="120" stroke="var(--axis-color)" stroke-width="1" />
  <line x1="78" y1="170" x2="80" y2="170" stroke="var(--axis-color)" stroke-width="1" />
  <line x1="78" y1="220" x2="80" y2="220" stroke="var(--axis-color)" stroke-width="1" />
  <line x1="78" y1="270" x2="80" y2="270" stroke="var(--axis-color)" stroke-width="1" />
  <line x1="78" y1="320" x2="80" y2="320" stroke="var(--axis-color)" stroke-width="1" />
  <line x1="78" y1="370" x2="80" y2="370" stroke="var(--axis-color)" stroke-width="1" />
  <line x1="78" y1="420" x2="80" y2="420" stroke="var(--axis-color)" stroke-width="1" />

  <!-- Y-axis labels -->
  <text x="70" y="75" font-family="Arial" font-size="12" text-anchor="end" fill="var(--text-color)">1.20x</text>
  <text x="70" y="125" font-family="Arial" font-size="12" text-anchor="end" fill="var(--text-color)">1.15x</text>
  <text x="70" y="175" font-family="Arial" font-size="12" text-anchor="end" fill="var(--text-color)">1.10x</text>
  <text x="70" y="225" font-family="Arial" font-size="12" text-anchor="end" fill="var(--text-color)">1.05x</text>
  <text x="70" y="275" font-family="Arial" font-size="12" text-anchor="end" fill="var(--text-color)">1.00x</text>
  <text x="70" y="325" font-family="Arial" font-size="12" text-anchor="end" fill="var(--text-color)">0.95x</text>
  <text x="70" y="375" font-family="Arial" font-size="12" text-anchor="end" fill="var(--text-color)">0.90x</text>
  <text x="70" y="425" font-family="Arial" font-size="12" text-anchor="end" fill="var(--text-color)">0.85x</text>

  <!-- Y-axis title -->
  <text x="25" y="250" font-family="Arial" font-size="14" text-anchor="middle" transform="rotate(-90, 25, 250)" fill="var(--text-color)">Speedup Factor</text>

  <!-- X-axis -->
  <line x1="80" y1="270" x2="750" y2="270" stroke="var(--axis-color)" stroke-width="1" />

  <!-- X-axis labels and bars -->
  <!-- stockthin - Mean: 39.264 (Baseline 1.00x) -->
  <rect x="100" y="270" width="60" height="0" fill="var(--baseline-color)" />
  <text x="130" y="445" font-family="Arial" font-size="12" text-anchor="middle" transform="rotate(-45, 130, 445)" fill="var(--text-color)">stockthin (baseline)</text>

  <!-- recalculated values (39.264/x = speedup factor) -->

  <!-- ipgofat - Mean: 36.058, Speedup: 1.089x -->
  <rect x="180" y="161.2" width="60" height="108.8" fill="var(--good-color)" />
  <line x1="210" y1="161.2" x2="210" y2="139.2" stroke="var(--error-bar-color)" stroke-width="2" />
  <line x1="210" y1="139.2" x2="210" y2="183.2" stroke="var(--error-bar-color)" stroke-width="2" />
  <line x1="200" y1="139.2" x2="220" y2="139.2" stroke="var(--error-bar-color)" stroke-width="2" />
  <line x1="200" y1="183.2" x2="220" y2="183.2" stroke="var(--error-bar-color)" stroke-width="2" />
  <text x="210" y="445" font-family="Arial" font-size="12" text-anchor="middle" transform="rotate(-45, 210, 445)" fill="var(--text-color)">ipgofat</text>

  <!-- ipgothin - Mean: 33.962, Speedup: 1.156x -->
  <rect x="260" y="92.8" width="60" height="177.2" fill="var(--excellent-color)" />
  <line x1="290" y1="92.8" x2="290" y2="84.8" stroke="var(--error-bar-color)" stroke-width="2" />
  <line x1="290" y1="84.8" x2="290" y2="100.8" stroke="var(--error-bar-color)" stroke-width="2" />
  <line x1="280" y1="84.8" x2="300" y2="84.8" stroke="var(--error-bar-color)" stroke-width="2" />
  <line x1="280" y1="100.8" x2="300" y2="100.8" stroke="var(--error-bar-color)" stroke-width="2" />
  <text x="290" y="445" font-family="Arial" font-size="12" text-anchor="middle" transform="rotate(-45, 290, 445)" fill="var(--text-color)">ipgothin</text>

  <!-- lbrpgofat - Mean: 37.526, Speedup: 1.046x -->
  <rect x="340" y="223.6" width="60" height="46.4" fill="var(--moderate-color)" />
  <line x1="370" y1="223.6" x2="370" y2="213.6" stroke="var(--error-bar-color)" stroke-width="2" />
  <line x1="370" y1="213.6" x2="370" y2="233.6" stroke="var(--error-bar-color)" stroke-width="2" />
  <line x1="360" y1="213.6" x2="380" y2="213.6" stroke="var(--error-bar-color)" stroke-width="2" />
  <line x1="360" y1="233.6" x2="380" y2="233.6" stroke="var(--error-bar-color)" stroke-width="2" />
  <text x="370" y="445" font-family="Arial" font-size="12" text-anchor="middle" transform="rotate(-45, 370, 445)" fill="var(--text-color)">lbrpgofat</text>

  <!-- lbrpgothin - Mean: 38.546, Speedup: 1.019x -->
  <rect x="420" y="250.8" width="60" height="19.2" fill="var(--moderate-color)" />
  <line x1="450" y1="250.8" x2="450" y2="248.8" stroke="var(--error-bar-color)" stroke-width="2" />
  <line x1="450" y1="248.8" x2="450" y2="252.8" stroke="var(--error-bar-color)" stroke-width="2" />
  <line x1="440" y1="248.8" x2="460" y2="248.8" stroke="var(--error-bar-color)" stroke-width="2" />
  <line x1="440" y1="252.8" x2="460" y2="252.8" stroke="var(--error-bar-color)" stroke-width="2" />
  <text x="450" y="445" font-family="Arial" font-size="12" text-anchor="middle" transform="rotate(-45, 450, 445)" fill="var(--text-color)">lbrpgothin</text>

  <!-- spgofat - Mean: 37.998, Speedup: 1.033x -->
  <rect x="500" y="236.4" width="60" height="33.6" fill="var(--moderate-color)" />
  <line x1="530" y1="236.4" x2="530" y2="223.4" stroke="var(--error-bar-color)" stroke-width="2" />
  <line x1="530" y1="223.4" x2="530" y2="249.4" stroke="var(--error-bar-color)" stroke-width="2" />
  <line x1="520" y1="223.4" x2="540" y2="223.4" stroke="var(--error-bar-color)" stroke-width="2" />
  <line x1="520" y1="249.4" x2="540" y2="249.4" stroke="var(--error-bar-color)" stroke-width="2" />
  <text x="530" y="445" font-family="Arial" font-size="12" text-anchor="middle" transform="rotate(-45, 530, 445)" fill="var(--text-color)">spgofat</text>

  <!-- spgothin - Mean: 40.261, Speedup: 0.975x -->
  <rect x="580" y="270" width="60" height="30" fill="var(--slower-color)" />
  <line x1="610" y1="270" x2="610" y2="290" stroke="var(--error-bar-color)" stroke-width="2" />
  <line x1="610" y1="290" x2="610" y2="250" stroke="var(--error-bar-color)" stroke-width="2" />
  <line x1="600" y1="290" x2="620" y2="290" stroke="var(--error-bar-color)" stroke-width="2" />
  <line x1="600" y1="250" x2="620" y2="250" stroke="var(--error-bar-color)" stroke-width="2" />
  <text x="610" y="445" font-family="Arial" font-size="12" text-anchor="middle" transform="rotate(-45, 610, 445)" fill="var(--text-color)">spgothin</text>

  <!-- stockfat - Mean: 37.961, Speedup: 1.034x -->
  <rect x="660" y="235.6" width="60" height="34.4" fill="var(--moderate-color)" />
  <line x1="690" y1="235.6" x2="690" y2="233.6" stroke="var(--error-bar-color)" stroke-width="2" />
  <line x1="690" y1="233.6" x2="690" y2="237.6" stroke="var(--error-bar-color)" stroke-width="2" />
  <line x1="680" y1="233.6" x2="700" y2="233.6" stroke="var(--error-bar-color)" stroke-width="2" />
  <line x1="680" y1="237.6" x2="700" y2="237.6" stroke="var(--error-bar-color)" stroke-width="2" />
  <text x="690" y="445" font-family="Arial" font-size="12" text-anchor="middle" transform="rotate(-45, 690, 445)" fill="var(--text-color)">stockfat</text>

  <!-- Legend -->
  <rect x="550" y="30" width="15" height="15" fill="var(--excellent-color)" />
  <text x="570" y="42" font-family="Arial" font-size="12" fill="var(--text-color)">Excellent (≥ 15% faster)</text>

  <rect x="550" y="50" width="15" height="15" fill="var(--good-color)" />
  <text x="570" y="62" font-family="Arial" font-size="12" fill="var(--text-color)">Good (5-14% faster)</text>

  <rect x="550" y="70" width="15" height="15" fill="var(--moderate-color)" />
  <text x="570" y="82" font-family="Arial" font-size="12" fill="var(--text-color)">Moderate (1-4% faster)</text>

  <rect x="550" y="90" width="15" height="15" fill="var(--slower-color)" />
  <text x="570" y="102" font-family="Arial" font-size="12" fill="var(--text-color)">Slower (&lt; 1x speed)</text>

  <!-- Grid lines -->
  <line x1="80" y1="120" x2="750" y2="120" stroke="var(--grid-color)" stroke-width="1" stroke-dasharray="5,5" />
  <line x1="80" y1="170" x2="750" y2="170" stroke="var(--grid-color)" stroke-width="1" stroke-dasharray="5,5" />
  <line x1="80" y1="220" x2="750" y2="220" stroke="var(--grid-color)" stroke-width="1" stroke-dasharray="5,5" />
  <line x1="80" y1="270" x2="750" y2="270" stroke="var(--grid-color)" stroke-width="1" stroke-dasharray="5,5" />
  <line x1="80" y1="320" x2="750" y2="320" stroke="var(--grid-color)" stroke-width="1" stroke-dasharray="5,5" />
  <line x1="80" y1="370" x2="750" y2="370" stroke="var(--grid-color)" stroke-width="1" stroke-dasharray="5,5" />

  <!-- Caption at the bottom -->
  <text x="400" y="480" font-family="Arial" font-size="12" text-anchor="middle" fill="var(--text-color)">Speedup factors relative to stockthin baseline with error bars (higher is better)</text>
</svg>